<?xml version="1.0" encoding="utf-8"?>
<!-- Generator: Adobe Illustrator 26.5.0, SVG Export Plug-In . SVG Version: 6.00 Build 0)  -->
<svg version="1.1" id="a" xmlns="http://www.w3.org/2000/svg" xmlns:xlink="http://www.w3.org/1999/xlink" x="0px" y="0px"
	 viewBox="0 0 458.2 251.1" style="enable-background:new 0 0 458.2 251.1;" xml:space="preserve">
<style type="text/css">
	.st0{enable-background:new    ;}
	.st1{fill:#1D1D1B;}
	.st2{fill:none;stroke:#000000;stroke-width:14.8065;stroke-miterlimit:10;}
	.st3{fill:none;stroke:#000000;stroke-width:14.8065;stroke-miterlimit:10;stroke-dasharray:62.368,26.5831;}
	.st4{fill:none;stroke:#000000;stroke-width:14.8065;stroke-miterlimit:10;stroke-dasharray:53.4665,22.789;}
</style>
<g>
	<g class="st0">
		<path class="st1" d="M56.9,112.9c-10.5,0-18.9-3.9-25.1-11.8c-6.3-7.9-9.4-18.6-9.4-32.1c0-13.5,3.1-24.2,9.4-32.1
			C38,29,46.4,25.1,56.9,25.1c8.1,0,14.9,2.5,20.6,7.5c5.7,5,8.9,11.5,9.6,19.7H77c-0.4-5.4-2.4-9.6-6.1-12.8
			c-3.7-3.2-8.3-4.7-13.9-4.7c-7.5,0-13.5,3-17.9,8.9C34.8,49.5,32.6,58,32.6,69c0,11,2.2,19.4,6.5,25.4c4.4,5.9,10.3,8.9,17.7,8.9
			c5.8,0,10.5-1.6,14.1-4.9c3.6-3.2,5.6-7.9,6.1-13.9h10.1c-0.7,9-3.8,16-9.3,21C72.3,110.4,65.3,112.9,56.9,112.9z"/>
		<path class="st1" d="M133.5,105.1c-4.9,5.2-11.1,7.8-18.8,7.8c-5.3,0-9.7-1.7-13.2-5c-3.4-3.3-5.2-7.6-5.2-12.8
			c0-14.4,10.8-21.5,32.5-21.5h4.7c0-4.4-0.2-7.6-0.6-9.6c-0.4-2-1.5-3.6-3.4-5c-1.9-1.3-4.8-2-8.9-2c-8.5,0-12.9,3.5-13.2,10.4
			h-9.5c0.7-12.6,8.4-18.9,23.2-18.9c6.9,0,12.3,1.6,16.1,4.7c3.8,3.1,5.8,9.3,5.8,18.4v39.7h-9.5V105.1z M133.5,95.3V81.6H127
			c-13.8,0-20.8,4.3-20.8,12.9c0,3.1,1,5.5,3,7.2c2,1.7,4.8,2.5,8.2,2.5c3.1,0,6.2-0.8,9.1-2.4S131.8,98,133.5,95.3z"/>
		<path class="st1" d="M178,111.5c-2.1,0.5-4.4,0.7-6.8,0.7c-3.9,0-6.8-0.8-8.6-2.4s-3-3.7-3.4-6.2c-0.4-2.5-0.7-5.9-0.7-10.2V58.5
			h-6.6V50h6.6V34.7h9.5V50h8.7v8.6H168V94c0,4.2,0.5,6.9,1.4,8c0.9,1.1,2.2,1.7,3.8,1.7c1.7,0,3.2-0.2,4.8-0.5V111.5z"/>
		<path class="st1" d="M208.8,112.9c-7.9,0-14.2-2.8-19-8.5c-4.8-5.7-7.2-13.5-7.2-23.7c0-10,2.3-17.9,7-23.6
			c4.6-5.7,10.7-8.5,18.2-8.5c7.7,0,13.8,2.8,18.4,8.4c4.6,5.6,6.9,13.5,6.9,23.7v2.6h-40.5c0.4,7.1,2.1,12.4,5.1,15.8
			c3,3.4,6.7,5.2,11.2,5.2c3.3,0,6.4-1,9-2.9c2.7-1.9,4.1-4.7,4.2-8.3h9.9c-0.7,6.3-3.3,11.2-7.5,14.7
			C220.2,111.1,215,112.9,208.8,112.9z M222.9,74.8c-0.8-5.9-2.5-10.3-5.2-13.3c-2.7-2.9-6-4.4-9.9-4.4c-3.8,0-7.1,1.5-9.8,4.4
			c-2.7,2.9-4.5,7.3-5.2,13.3H222.9z"/>
		<path class="st1" d="M287.2,106.7c0,19.8-7.8,29.6-23.4,29.6c-6.8,0-12.1-1.7-16-5c-3.9-3.4-5.9-7.9-5.9-13.6h9.9
			c0,6.7,4,10.1,11.9,10.1c4.5,0,7.9-1.4,10.3-4.2c2.4-2.8,3.6-8.3,3.6-16.5v-3.1c-4.3,5.9-9.4,8.8-15.3,8.8c-7,0-12.5-2.9-16.3-8.6
			c-3.8-5.7-5.8-13.4-5.8-23.1c0-10,2.2-18,6.5-23.8c4.3-5.8,9.7-8.8,16.2-8.8c5.8,0,10.7,2,14.7,6.1V50h9.5V106.7z M277.7,93.7
			V64.6c-4.1-5-8.8-7.5-14.1-7.5c-4.1,0-7.4,2-9.8,6.1c-2.4,4-3.7,10-3.7,18c0,7.6,1.2,13.3,3.5,17.2c2.3,3.9,5.5,5.9,9.6,5.9
			C268.5,104.3,273.3,100.8,277.7,93.7z"/>
		<path class="st1" d="M323.1,48.6c7.7,0,13.8,2.8,18.4,8.4c4.6,5.6,6.9,13.5,6.9,23.7c0,10.2-2.3,18.1-6.9,23.7s-10.7,8.4-18.4,8.4
			c-7.6,0-13.7-2.8-18.3-8.4S298,90.9,298,80.7c0-10.2,2.3-18.1,6.9-23.7C309.4,51.4,315.5,48.6,323.1,48.6z M323.1,104.3
			c4.6,0,8.3-2,11.1-5.9c2.8-4,4.3-9.8,4.3-17.6c0-7.8-1.4-13.7-4.3-17.7c-2.8-4-6.5-5.9-11.1-5.9s-8.3,2-11.1,5.9
			c-2.8,4-4.3,9.9-4.3,17.7c0,7.8,1.4,13.7,4.3,17.6C314.9,102.3,318.6,104.3,323.1,104.3z"/>
		<path class="st1" d="M386.9,59.9c-1.4-0.5-3.3-0.7-5.8-0.7c-4.9,0-9,2.9-12.5,8.7v43.4H359V50h9.6v8.6c4-6.6,8.7-10,14-10
			c1.3,0,2.8,0.2,4.4,0.5V59.9z"/>
		<path class="st1" d="M396.6,126.2c4.7,0,8.6-4.9,11.6-14.8L387.9,50h10.3L412.5,98L426.7,50H437l-20.3,61.4
			c-2,5.9-3.6,10.4-5,13.6c-1.4,3.2-3.2,5.9-5.4,8c-2.2,2.2-4.9,3.3-8.1,3.3c-2.4,0-4.5-0.3-6.2-0.8v-10.1
			C393.5,126,395.1,126.2,396.6,126.2z"/>
	</g>
	<g class="st0">
		<path class="st1" d="M148.3,215.6h-10.6v-84.9h10.6V215.6z"/>
		<path class="st1" d="M189.3,217c-8.2,0-14.7-2.8-19.6-8.4c-4.9-5.6-7.4-13.5-7.4-23.7c0-10.2,2.5-18.1,7.4-23.7
			c4.9-5.6,11.5-8.4,19.6-8.4c6.3,0,11.6,1.7,15.8,5.1c4.2,3.4,6.7,8.3,7.5,14.7H202c-0.1-3.7-1.4-6.5-3.9-8.4
			c-2.4-1.9-5.4-2.9-8.8-2.9c-4.9,0-8.9,2-11.9,5.9c-3,4-4.6,9.9-4.6,17.7c0,7.8,1.5,13.7,4.6,17.6c3,4,7,5.9,11.9,5.9
			c3.4,0,6.4-1,8.8-2.9c2.4-1.9,3.7-4.7,3.9-8.3h10.5c-0.8,6.4-3.3,11.3-7.5,14.7C200.9,215.3,195.6,217,189.3,217z"/>
		<path class="st1" d="M244.9,152.8c8.2,0,14.8,2.8,19.7,8.4c4.9,5.6,7.4,13.5,7.4,23.7c0,10.2-2.5,18.1-7.4,23.7
			s-11.5,8.4-19.7,8.4c-8.2,0-14.7-2.8-19.6-8.4c-4.9-5.6-7.4-13.5-7.4-23.7c0-10.2,2.5-18.1,7.4-23.7
			C230.2,155.6,236.7,152.8,244.9,152.8z M244.9,208.5c4.9,0,8.9-2,11.9-5.9c3-4,4.6-9.8,4.6-17.6c0-7.8-1.5-13.7-4.6-17.7
			c-3-4-7-5.9-11.9-5.9s-8.9,2-11.9,5.9c-3,4-4.6,9.9-4.6,17.7c0,7.8,1.5,13.7,4.6,17.6C236.1,206.5,240,208.5,244.9,208.5z"/>
		<path class="st1" d="M293.7,162c5.1-6.1,10.8-9.2,17.2-9.2c13,0,19.5,7.5,19.5,22.6v40.2h-10.3v-39.7c0-5-0.8-8.6-2.5-10.8
			c-1.7-2.2-4.4-3.3-8.3-3.3c-5.2,0-10.4,3.3-15.6,9.8v44h-10.3v-61.4h10.3V162z"/>
	</g>
	<g>
		<g>
			<polyline class="st2" points="7.4,37.9 7.4,7.4 37.9,7.4 			"/>
			<line class="st3" x1="64.5" y1="7.4" x2="407" y2="7.4"/>
			<polyline class="st2" points="420.3,7.4 450.8,7.4 450.8,37.9 			"/>
			<line class="st4" x1="450.8" y1="60.7" x2="450.8" y2="201.8"/>
			<polyline class="st2" points="450.8,213.2 450.8,243.7 420.3,243.7 			"/>
			<line class="st3" x1="393.7" y1="243.7" x2="51.2" y2="243.7"/>
			<polyline class="st2" points="37.9,243.7 7.4,243.7 7.4,213.2 			"/>
			<line class="st4" x1="7.4" y1="190.4" x2="7.4" y2="49.3"/>
		</g>
	</g>
</g>
</svg>
