<?xml version="1.0" encoding="UTF-8"?><svg id="a" xmlns="http://www.w3.org/2000/svg" viewBox="0 0 484.04 182"><path d="M395.14,165.51c-112.4-9-126.9-10.1-202.3-1.3-119,13.9-123.5,28.8-156.5-22.5C14.74,108.21-35.06,12.91,63.64,5.51,129.84,.51,104.54,15.51,244.54,18.71c171.6,3.9,264.5-44.1,226.6,55-17,43.9-22.6,96-76,91.8Z" style="fill:#e8852c; stroke:#fff; stroke-miterlimit:10; stroke-width:9px;"/><path d="M163.54,50.21c-.2-.1-53.8-16.7-53.8-16.7-.5-.2-.9-.2-1.4,0l-53.1,16.2c-1.3,.5-1.7,1.6-1.7,2.2V118.51c0,1.1,.7,2,1.7,2.2l52.4,15.6c.8,.3,1.7,.4,2.8,0l52.4-15.6c.9-.4,1.7-1.3,1.7-2.2V51.91c0-.6-.2-1.3-1-1.7h0Zm-54.4-12.1l45.5,13.6-17.2,5.1-44.9-13.7,16.6-5h0Zm-2.4,93.2l-48.4-14.2V55.11l48.4,14.4v61.8Zm2.4-66l-45.5-13.4,21.5-6.5,44.7,13.7-20.7,6.2Zm2.3,66v-62l24.1-7.1v6.9l4.7-1.9v-6.4l19.6-5.8v61.8h0l-48.4,14.5h0Z" style="fill:#d5ffff;"/><text transform="translate(188.4 121.82) scale(.97 1)" style="fill:#d5ffff; font-family:MicrosoftSansSerif, &apos;Microsoft Sans Serif&apos;; font-size:101.65px; isolation:isolate;"><tspan x="0" y="0">Store</tspan></text></svg>